<mxfile host="www.draw.io" modified="2019-12-08T13:59:14.230Z" agent="Mozilla/5.0 (Macintosh; Intel Mac OS X 10_13_6) AppleWebKit/605.1.15 (KHTML, like Gecko) Version/13.0.3 Safari/605.1.15" etag="7mTNZbnFS0lRsDQ0j9_v" version="12.3.8" type="github" pages="1">
  <diagram id="8mc5Oi59DUHHOhJ6GX91" name="Page-1">
    <mxGraphModel dx="1381" dy="1154" grid="1" gridSize="10" guides="1" tooltips="1" connect="1" arrows="1" fold="1" page="1" pageScale="1" pageWidth="827" pageHeight="1169" math="0" shadow="0">
      <root>
        <mxCell id="0"/>
        <mxCell id="1" parent="0"/>
        <mxCell id="vbt6hJk_GPvuKAf7x4kO-1" value="" style="rounded=0;whiteSpace=wrap;html=1;" vertex="1" parent="1">
          <mxGeometry x="180" y="40" width="120" height="60" as="geometry"/>
        </mxCell>
        <mxCell id="vbt6hJk_GPvuKAf7x4kO-2" value="CT &amp;nbsp;hersenen" style="text;html=1;strokeColor=none;fillColor=none;align=center;verticalAlign=middle;whiteSpace=wrap;rounded=0;" vertex="1" parent="1">
          <mxGeometry x="220" y="60" width="40" height="20" as="geometry"/>
        </mxCell>
        <mxCell id="vbt6hJk_GPvuKAf7x4kO-4" value="" style="rhombus;whiteSpace=wrap;html=1;" vertex="1" parent="1">
          <mxGeometry x="200" y="140" width="80" height="80" as="geometry"/>
        </mxCell>
        <mxCell id="vbt6hJk_GPvuKAf7x4kO-5" value="bloeding" style="text;html=1;strokeColor=none;fillColor=none;align=center;verticalAlign=middle;whiteSpace=wrap;rounded=0;" vertex="1" parent="1">
          <mxGeometry x="220" y="170" width="40" height="20" as="geometry"/>
        </mxCell>
        <mxCell id="vbt6hJk_GPvuKAf7x4kO-7" value="" style="rounded=0;whiteSpace=wrap;html=1;" vertex="1" parent="1">
          <mxGeometry x="180" y="240" width="120" height="60" as="geometry"/>
        </mxCell>
        <mxCell id="vbt6hJk_GPvuKAf7x4kO-8" value="intracerebrale bloeding" style="text;html=1;strokeColor=none;fillColor=none;align=center;verticalAlign=middle;whiteSpace=wrap;rounded=0;" vertex="1" parent="1">
          <mxGeometry x="220" y="260" width="40" height="20" as="geometry"/>
        </mxCell>
        <mxCell id="vbt6hJk_GPvuKAf7x4kO-10" value="" style="rhombus;whiteSpace=wrap;html=1;" vertex="1" parent="1">
          <mxGeometry x="370" y="140" width="100" height="80" as="geometry"/>
        </mxCell>
        <mxCell id="vbt6hJk_GPvuKAf7x4kO-11" value="infarct en repercussie?" style="text;html=1;strokeColor=none;fillColor=none;align=center;verticalAlign=middle;whiteSpace=wrap;rounded=0;" vertex="1" parent="1">
          <mxGeometry x="400" y="170" width="40" height="20" as="geometry"/>
        </mxCell>
        <mxCell id="vbt6hJk_GPvuKAf7x4kO-12" value="" style="rounded=0;whiteSpace=wrap;html=1;" vertex="1" parent="1">
          <mxGeometry x="370" y="280" width="120" height="60" as="geometry"/>
        </mxCell>
        <mxCell id="vbt6hJk_GPvuKAf7x4kO-13" value="CTA en eventueel IVT&amp;nbsp;" style="text;html=1;strokeColor=none;fillColor=none;align=center;verticalAlign=middle;whiteSpace=wrap;rounded=0;" vertex="1" parent="1">
          <mxGeometry x="390" y="300" width="80" height="20" as="geometry"/>
        </mxCell>
        <mxCell id="vbt6hJk_GPvuKAf7x4kO-14" value="" style="rhombus;whiteSpace=wrap;html=1;" vertex="1" parent="1">
          <mxGeometry x="373" y="390" width="97" height="80" as="geometry"/>
        </mxCell>
        <mxCell id="vbt6hJk_GPvuKAf7x4kO-15" value="behandelbare occlusie?&amp;nbsp;" style="text;html=1;strokeColor=none;fillColor=none;align=center;verticalAlign=middle;whiteSpace=wrap;rounded=0;" vertex="1" parent="1">
          <mxGeometry x="401.5" y="430" width="40" as="geometry"/>
        </mxCell>
      </root>
    </mxGraphModel>
  </diagram>
</mxfile>
